<?xml version="1.0" encoding="utf-8"?>
<!-- Generator: Adobe Illustrator 16.0.0, SVG Export Plug-In . SVG Version: 6.00 Build 0)  -->
<!DOCTYPE svg PUBLIC "-//W3C//DTD SVG 1.1//EN" "http://www.w3.org/Graphics/SVG/1.1/DTD/svg11.dtd">
<svg version="1.1" id="Layer_1" xmlns="http://www.w3.org/2000/svg" xmlns:xlink="http://www.w3.org/1999/xlink" x="0px" y="0px"
	 width="20px" height="20px" viewBox="0 0 20 20" enable-background="new 0 0 20 20" xml:space="preserve">
<g>
	<path fill="#8FBC8F" d="M13.498,6.651c-0.168-0.436-0.514-0.781-0.95-0.949c-0.297-0.11-0.61-0.168-0.928-0.172
		C11.093,5.506,10.936,5.5,9.6,5.5c-1.335,0-1.493,0.006-2.02,0.03C7.263,5.534,6.949,5.592,6.651,5.702
		c-0.436,0.168-0.78,0.513-0.949,0.95C5.592,6.948,5.534,7.262,5.53,7.58C5.506,8.107,5.5,8.265,5.5,9.6
		c0,1.335,0.006,1.494,0.03,2.02c0.004,0.317,0.062,0.632,0.172,0.929c0.168,0.436,0.513,0.78,0.95,0.949
		c0.296,0.109,0.61,0.168,0.928,0.172c0.527,0.023,0.685,0.029,2.02,0.029c1.335,0,1.493-0.006,2.02-0.03
		c0.317-0.003,0.632-0.062,0.929-0.171c0.436-0.168,0.78-0.514,0.949-0.95c0.109-0.296,0.168-0.61,0.172-0.928
		c0.023-0.526,0.029-0.685,0.029-2.02c0-1.335-0.006-1.493-0.03-2.02C13.666,7.263,13.607,6.949,13.498,6.651z M9.6,12.168
		c-1.418,0-2.568-1.149-2.568-2.568c0-1.418,1.149-2.568,2.567-2.568c0,0,0,0,0.001,0c1.417,0,2.568,1.15,2.568,2.568
		C12.168,11.019,11.018,12.168,9.6,12.168z M12.27,7.531c-0.332,0-0.601-0.268-0.602-0.6c0-0.331,0.27-0.6,0.6-0.6
		c0.001,0,0.001,0,0.002,0c0.331,0,0.6,0.269,0.6,0.6S12.6,7.531,12.27,7.531z"/>
	<circle fill="#8FBC8F" cx="9.6" cy="9.6" r="1.667"/>
	<path fill="#8FBC8F" d="M9.6,0C4.298,0,0,4.298,0,9.6c0,5.302,4.298,9.6,9.6,9.6s9.6-4.298,9.6-9.6C19.2,4.298,14.902,0,9.6,0
		L9.6,0z M14.57,11.661c-0.009,0.415-0.088,0.825-0.233,1.214c-0.26,0.672-0.79,1.202-1.462,1.462
		c-0.389,0.146-0.799,0.225-1.213,0.233C11.128,14.594,10.958,14.6,9.6,14.6s-1.528-0.006-2.062-0.029
		c-0.415-0.009-0.825-0.088-1.213-0.233c-0.672-0.259-1.203-0.79-1.463-1.462c-0.145-0.389-0.224-0.799-0.232-1.213
		C4.606,11.128,4.6,10.958,4.6,9.6s0.006-1.528,0.03-2.062c0.008-0.415,0.087-0.825,0.232-1.213c0.26-0.672,0.791-1.203,1.463-1.463
		C6.713,4.717,7.124,4.638,7.538,4.63C8.072,4.606,8.242,4.6,9.6,4.6s1.528,0.006,2.062,0.03c0.414,0.008,0.824,0.087,1.213,0.232
		c0.672,0.26,1.203,0.791,1.462,1.463c0.146,0.388,0.226,0.799,0.233,1.213C14.594,8.072,14.6,8.242,14.6,9.6
		S14.594,11.128,14.57,11.661L14.57,11.661z"/>
</g>
</svg>
